<?xml version="1.0" encoding="utf-8"?>
<!-- Generator: Adobe Illustrator 16.0.0, SVG Export Plug-In . SVG Version: 6.00 Build 0)  -->
<!DOCTYPE svg PUBLIC "-//W3C//DTD SVG 1.1//EN" "http://www.w3.org/Graphics/SVG/1.1/DTD/svg11.dtd">
<svg version="1.1" id="GMEM_x5F_Logo" xmlns="http://www.w3.org/2000/svg" xmlns:xlink="http://www.w3.org/1999/xlink" x="0px"
	 y="0px" width="213.359px" height="214.725px" viewBox="0 0 213.359 214.725" enable-background="new 0 0 213.359 214.725"
	 xml:space="preserve">
<g>
	<path d="M210.915,146.695h-20.957v5.16h20.957V146.695z M85.175,209.564H64.218v5.16h20.957V209.564z M85.175,146.695H64.218v5.16
		h20.957V146.695z M22.306,146.695H1.349v5.16h20.957V146.695z M1.349,68.028h20.956v-5.158H1.349V68.028z M20.027,120.236h3.36
		v-12.975H12.076v3.393h7.354v0.232c0,4.027-2.796,6.156-7.021,6.156c-5.355,0-7.919-3.729-7.919-9.449
		c0-5.954,2.994-9.647,7.686-9.647c3.693,0,6.022,2.229,6.953,6.224l4.227-1.031c-1.397-5.755-5.322-9.082-11.11-9.082
		C5.289,94.055,0,99.211,0,107.76c0,7.619,3.727,12.908,11.078,12.908c3.959,0,6.92-1.861,8.482-5.023h0.102L20.027,120.236z
		 M32.783,36.594h20.955v-5.16H32.783V36.594z M32.783,183.289h20.955v-5.16H32.783V183.289z M64.218,5.159h20.957V0H64.218V5.159z
		 M64.218,68.028h20.957v-5.158H64.218V68.028z M83.497,120.236h4.125v-25.75h-5.49l-7.151,20.626l-7.252-20.626h-5.922v25.75h3.991
		v-19.927l6.82,19.927h4.19l6.688-19.96L83.497,120.236L83.497,120.236z M95.653,36.594h20.955v-5.16H95.653V36.594z
		 M95.653,183.289h20.955v-5.16H95.653V183.289z M127.087,5.159h20.957V0h-20.957V5.159z M127.087,68.028h20.957v-5.158h-20.957
		V68.028z M133.524,116.609v-7.918h12.242v-3.524h-12.242v-7.055h13.041v-3.626h-17.399v25.75h18.065v-3.627H133.524z
		 M127.087,151.855h20.957v-5.16h-20.957V151.855z M127.087,214.725h20.957v-5.16h-20.957V214.725z M158.522,36.594h20.955v-5.16
		h-20.955V36.594z M158.522,183.289h20.955v-5.16h-20.955V183.289z M189.958,68.028h20.955v-5.158h-20.955V68.028z M213.36,120.236
		v-25.75h-5.489l-7.149,20.626l-7.255-20.626h-5.922v25.75h3.992v-19.927l6.819,19.927h4.19l6.688-19.96v19.96H213.36z"/>
</g>
</svg>
